<?xml version="1.0" encoding="UTF-8" standalone="no"?>
<!-- Created with Inkscape (http://www.inkscape.org/) -->

<svg
   width="128mm"
   height="128mm"
   viewBox="0 0 128 128"
   version="1.1"
   id="svg5"
   xml:space="preserve"
   inkscape:version="1.2.2 (732a01da63, 2022-12-09)"
   sodipodi:docname="logo.svg"
   xmlns:inkscape="http://www.inkscape.org/namespaces/inkscape"
   xmlns:sodipodi="http://sodipodi.sourceforge.net/DTD/sodipodi-0.dtd"
   xmlns="http://www.w3.org/2000/svg"
   xmlns:svg="http://www.w3.org/2000/svg"><sodipodi:namedview
     id="namedview7"
     pagecolor="#ffffff"
     bordercolor="#000000"
     borderopacity="0.25"
     inkscape:showpageshadow="2"
     inkscape:pageopacity="0.0"
     inkscape:pagecheckerboard="true"
     inkscape:deskcolor="#d1d1d1"
     inkscape:document-units="mm"
     showgrid="false"
     shape-rendering="auto"
     inkscape:zoom="0.74564394"
     inkscape:cx="153.55855"
     inkscape:cy="370.14986"
     inkscape:window-width="1920"
     inkscape:window-height="1017"
     inkscape:window-x="1912"
     inkscape:window-y="-8"
     inkscape:window-maximized="1"
     inkscape:current-layer="layer1" /><defs
     id="defs2" /><g
     inkscape:label="Warstwa 1"
     inkscape:groupmode="layer"
     id="layer1"><g
       id="g2455"
       transform="matrix(0.8172709,0,0,0.86687712,0.06634743,-0.06543556)"><path
         sodipodi:type="star"
         style="fill:#50ff02;fill-opacity:1;stroke:#02e402;stroke-width:5.283;stroke-dasharray:none;stroke-opacity:0;paint-order:markers fill stroke"
         id="path923"
         inkscape:flatsided="true"
         sodipodi:sides="6"
         sodipodi:cx="52.516129"
         sodipodi:cy="28.741938"
         sodipodi:r1="107.27637"
         sodipodi:r2="53.638187"
         sodipodi:arg1="-0.33011856"
         sodipodi:arg2="0.19348022"
         inkscape:rounded="0"
         inkscape:randomized="0"
         d="M 153.99999,-6.0322534 133.37339,99.242446 31.88953,134.01664 -48.967735,63.516129 -28.341136,-41.758571 73.142728,-76.532762 Z"
         inkscape:transform-center-x="7.0443651"
         inkscape:transform-center-y="0.37423378"
         transform="matrix(0,-0.70739157,0.72327538,0,57.519191,110.97944)" /><g
         id="g1723"
         transform="matrix(0.59240243,0,0,0.59055118,0.95123516,4.4687832)"><path
           d="M 207.83898,112.15995 H 196.99106 C 195.93273,97.872446 190.1119,84.907863 181.38064,74.589113 l 7.67292,-7.672917 c 2.11667,-2.116667 2.38125,-5.027083 0.79375,-6.614583 l -1.5875,-1.587501 c -1.5875,-1.5875 -4.7625,-1.322916 -6.61458,0.793751 l -7.67292,7.672916 C 163.65356,58.449529 150.68898,52.628696 136.40148,51.570362 V 40.722446 c 0,-2.910417 -1.85209,-5.291667 -4.23334,-5.291667 h -2.11666 c -2.38125,0 -4.23334,2.38125 -4.23334,5.291667 v 10.847916 c -14.2875,1.058334 -27.252079,6.879167 -37.570829,15.610417 l -7.672916,-7.672916 c -2.116667,-2.116667 -5.027084,-2.381251 -6.614584,-0.793751 l -1.5875,1.587501 c -1.5875,1.5875 -1.322916,4.7625 0.79375,6.614583 l 7.672917,7.672917 C 72.107728,84.907863 66.286895,97.872446 65.228561,112.15995 H 54.380644 c -2.910416,0 -5.291666,1.85208 -5.291666,4.23333 v 2.11667 c 0,2.38125 2.38125,4.23333 5.291666,4.23333 h 10.847917 c 1.058334,14.2875 6.614584,27.51667 15.345834,37.83542 l -7.672917,7.67291 c -2.116667,2.11667 -2.38125,5.02709 -0.79375,6.61459 l 1.5875,1.5875 c 1.5875,1.5875 4.7625,1.32291 6.614583,-0.79375 l 7.672917,-7.67292 c 10.31875,8.73125 23.283332,14.55208 37.570832,15.61042 v 10.84791 c 0,2.91042 1.85208,5.29167 4.23333,5.29167 h 2.11667 c 2.38125,0 4.23333,-2.38125 4.23333,-5.29167 v -10.84791 c 14.2875,-1.05834 27.25209,-6.87917 37.57084,-15.61042 l 7.67291,7.67292 c 2.11667,2.11666 5.02709,2.38125 6.61459,0.79375 l 1.5875,-1.5875 c 1.5875,-1.5875 1.32292,-4.7625 -0.79375,-6.61459 l -7.67292,-7.67291 c 8.99584,-10.31875 14.55209,-23.54792 15.875,-37.83542 h 10.84792 c 2.91042,0 5.29167,-1.85208 5.29167,-4.23333 v -2.11667 c 0,-2.11667 -2.38125,-4.23333 -5.29167,-4.23333 z m -26.72292,0 h -32.27917 c -0.26458,-1.32292 -0.79375,-2.38125 -1.32291,-3.43959 l 22.75416,-22.754164 c 5.82084,7.408333 9.78959,16.404164 10.84792,26.193754 z M 162.59523,78.557863 139.84106,101.31203 c -1.05833,-0.52917 -2.38125,-1.05833 -3.43958,-1.322917 V 67.709946 c 9.78958,0.79375 18.78541,4.7625 26.19375,10.847917 z M 125.81814,67.709946 v 32.279167 c -1.32291,0.264587 -2.38125,0.793747 -3.43958,1.322917 L 99.624395,78.557863 C 106.76814,72.472446 115.76398,68.503696 125.81814,67.709946 Z m -33.866662,18.25625 22.754162,22.754164 c -0.52916,1.05834 -1.05833,2.38125 -1.32291,3.43959 H 81.103561 c 1.058334,-9.78959 4.7625,-18.785421 10.847917,-26.193754 z M 81.103561,122.74328 h 32.279169 c 0.26458,1.32292 0.79375,2.38125 1.32291,3.43958 l -22.754162,22.75417 c -6.085417,-7.14375 -9.789583,-16.13958 -10.847917,-26.19375 z m 18.25625,33.86667 22.754169,-22.75417 c 1.05833,0.52917 2.38125,1.05833 3.43958,1.32292 v 32.27916 c -9.78958,-1.05833 -18.78542,-4.7625 -26.193749,-10.84791 z m 37.041669,10.84791 v -32.01458 c 1.32291,-0.26458 2.38125,-0.79375 3.43958,-1.32292 l 22.75417,22.75417 c -7.40834,5.82083 -16.40417,9.525 -26.19375,10.58333 z m 33.60208,-18.25625 -22.75417,-22.75416 c 0.52917,-1.05834 1.05834,-2.38125 1.32292,-3.43959 h 32.54375 c -1.05833,9.78959 -5.02708,18.78542 -11.1125,26.19375 z"
           fill="#fac546"
           id="path1342"
           style="fill:#000000;fill-opacity:1;stroke-width:0.206706" /><path
           d="m 132.16814,202.11828 h -2.11666 c -3.70417,0 -6.87917,-3.43958 -6.87917,-7.9375 v -8.46667 c -12.7,-1.5875 -24.606249,-6.35 -34.660415,-14.2875 l -5.820834,5.82084 c -1.5875,1.5875 -3.704166,2.64583 -5.820833,2.64583 -1.852083,0 -3.439583,-0.52917 -4.497917,-1.85208 l -2.116666,-1.32292 c -1.058334,-1.05833 -1.852084,-2.91042 -1.852084,-4.49792 0,-2.11666 1.058334,-4.23333 2.645834,-5.82083 l 5.820833,-5.82083 c -7.9375,-10.05417 -12.964583,-21.96042 -14.2875,-34.66042 h -8.466667 c -4.497917,0 -7.9375,-3.175 -7.9375,-6.87917 v -2.11666 c 0,-3.70417 3.439583,-6.87917 7.9375,-6.87917 h 8.466667 c 1.5875,-12.700001 6.35,-24.606251 14.2875,-34.660417 l -5.820833,-5.820834 c -1.5875,-1.5875 -2.645834,-3.704166 -2.645834,-5.820833 0,-1.852083 0.529167,-3.439583 1.852084,-4.497917 l 1.5875,-1.5875 c 1.058333,-1.058333 2.910416,-1.852083 4.497916,-1.852083 2.116667,0 4.233334,1.058333 5.820834,2.645833 l 5.820833,5.820834 C 98.036895,56.332862 109.94314,51.305779 122.64314,49.982862 v -9.260416 c 0,-4.497917 3.175,-7.9375 6.87917,-7.9375 h 2.11667 c 3.70416,0 6.87916,3.439583 6.87916,7.9375 v 8.466666 c 12.7,1.5875 24.60625,6.35 34.66042,14.287501 l 5.82083,-5.820834 c 1.32292,-1.322917 3.175,-2.38125 5.02709,-2.645833 2.11666,-0.264584 3.96875,0.529166 5.29167,1.852083 l 1.5875,1.5875 c 1.32291,1.322917 2.11666,3.439584 1.85208,5.291667 -0.26458,1.852083 -1.05833,3.704167 -2.64583,5.027083 l -5.82084,5.820834 c 7.9375,10.054166 12.96459,21.960416 14.2875,34.660417 h 8.46667 c 4.49792,0 7.9375,3.175 7.9375,6.87917 v 2.38125 c 0,3.70416 -3.43958,6.87916 -7.9375,6.87916 h -8.46667 c -1.5875,12.7 -6.35,24.60625 -14.2875,34.66042 l 5.82084,5.82083 c 1.5875,1.5875 2.64583,3.70417 2.64583,5.82084 0,1.85208 -0.52917,3.43958 -1.85208,4.49791 l -1.5875,1.5875 c -1.32292,1.32292 -3.43959,2.11667 -5.29167,1.85209 -1.85209,-0.26459 -3.70417,-1.05834 -5.02709,-2.64584 l -5.29166,-5.55625 c -10.05417,7.9375 -21.96042,12.96459 -34.66042,14.2875 v 8.46667 c 0,4.49792 -3.175,7.9375 -6.87917,7.9375 z M 88.247311,165.3412 c 0.529167,0 1.322917,0.26458 1.5875,0.52916 10.318749,8.73125 22.754169,13.75834 35.983329,14.81667 1.32292,0 2.38125,1.32292 2.38125,2.64583 v 10.84792 c 0,1.5875 0.79375,2.64583 1.5875,2.64583 h 2.11667 c 0.79375,0 1.5875,-1.05833 1.5875,-2.64583 v -10.84792 c 0,-1.32291 1.05833,-2.64583 2.38125,-2.64583 13.49375,-1.05833 25.92917,-6.35 35.98333,-14.81667 1.05834,-0.79375 2.64584,-0.79375 3.70417,0.26459 l 7.67292,7.67291 c 0.52916,0.52917 1.32291,1.05834 1.85208,1.05834 0.26458,0 0.79375,0 1.05833,-0.26459 l 1.5875,-1.5875 c 0.26459,-0.26458 0.26459,-0.52916 0.26459,-0.79375 0,-0.79375 -0.26459,-1.5875 -1.05834,-2.11666 l -7.67291,-7.67292 c -1.05834,-1.05833 -1.05834,-2.64583 -0.26459,-3.70417 8.73125,-10.31875 13.75834,-22.75416 14.81667,-35.98333 0,-1.32292 1.32292,-2.38125 2.64584,-2.38125 h 10.84791 c 1.5875,0 2.64584,-0.79375 2.64584,-1.5875 v -2.11667 c 0,-0.79375 -1.05834,-1.5875 -2.64584,-1.5875 h -10.31875 c -1.32291,0 -2.64583,-1.05833 -2.64583,-2.38125 -1.05833,-13.493747 -6.35,-25.929164 -14.81667,-35.983331 -0.79375,-1.058333 -0.79375,-2.645833 0.26458,-3.704166 l 7.67292,-7.672917 c 0.52917,-0.529167 1.05834,-1.322917 1.05834,-1.852083 0,-0.264584 0,-0.79375 -0.26459,-1.058334 l -1.85208,-1.5875 c -0.26459,-0.264583 -0.79375,-0.264583 -1.05834,-0.264583 -0.79375,0 -1.32291,0.529167 -1.85208,1.058333 l -7.67292,7.408334 c -1.05833,1.058333 -2.64583,1.058333 -3.70416,0.264583 -10.31875,-8.73125 -22.75417,-13.758334 -35.98334,-14.816667 -1.32291,0 -2.38125,-1.322917 -2.38125,-2.645833 v -11.1125 c 0,-1.5875 -0.79375,-2.645834 -1.5875,-2.645834 h -2.11666 c -0.79375,0 -1.5875,1.058334 -1.5875,2.645834 v 10.847916 c 0,1.322917 -1.05834,2.645834 -2.38125,2.645834 -13.49375,1.058333 -25.92917,6.35 -35.983335,14.816667 -1.058334,0.79375 -2.645834,0.79375 -3.704167,-0.264584 l -7.672917,-7.672916 c -0.79375,-0.264584 -1.5875,-0.79375 -2.38125,-0.79375 -0.264583,0 -0.529166,0 -0.79375,0.264583 l -1.5875,1.5875 c -0.264583,0.264583 -0.264583,0.529167 -0.264583,0.79375 0,0.79375 0.264583,1.5875 1.058333,2.116667 l 7.672917,7.672916 c 1.058333,1.058334 1.058333,2.645834 0.264583,3.704167 -8.73125,10.31875 -13.758333,22.754167 -14.816666,35.983334 0,1.32292 -1.322917,2.38125 -2.645834,2.38125 H 54.380644 c -1.5875,0 -2.645833,0.79375 -2.645833,1.5875 v 2.11667 c 0,0.79375 1.058333,1.5875 2.645833,1.5875 h 10.847917 c 1.322917,0 2.645834,1.05833 2.645834,2.38125 1.058333,13.49375 6.35,25.92916 14.816666,35.98333 0.79375,1.05833 0.79375,2.64583 -0.264583,3.70417 l -7.672917,7.67291 c -0.529166,0.52917 -1.058333,1.32292 -1.058333,2.11667 0,0.26458 0,0.52917 0.264583,0.79375 l 1.5875,1.5875 c 0.264584,0.26458 0.529167,0.26458 0.79375,0.26458 0.79375,0 1.5875,-0.26458 2.116667,-1.05833 l 7.672917,-7.67292 c 0.529166,-0.26458 1.322916,-0.52916 2.116666,-0.52916 z m 48.154169,4.7625 c -0.52917,0 -1.32292,-0.26459 -1.85209,-0.79375 -0.52916,-0.52917 -0.79375,-1.32292 -0.79375,-1.85209 v -32.01458 c 0,-1.05833 0.79375,-2.11667 1.85209,-2.64583 1.05833,-0.26459 2.11666,-0.79375 2.91041,-1.32292 1.05834,-0.52917 2.38125,-0.26458 3.175,0.52917 l 22.75417,22.75416 c 0.52917,0.52917 0.79375,1.32292 0.79375,2.11667 0,0.79375 -0.26458,1.32292 -1.05833,1.85208 -7.9375,6.35 -17.4625,10.31875 -27.78125,11.37709 z m 2.64583,-32.80834 v 27.25209 c 7.14375,-1.05834 13.75833,-3.96875 19.57917,-8.20209 l -19.31459,-19.31458 c -0.26458,0 -0.26458,0 -0.26458,0.26458 z m -13.22917,32.80834 h -0.26458 c -10.05417,-1.05834 -19.84375,-5.02709 -27.781249,-11.37709 -0.529166,-0.52916 -1.058333,-1.05833 -1.058333,-1.85208 0,-0.79375 0.264583,-1.5875 0.79375,-2.11667 L 120.26189,132.0037 c 0.79375,-0.79375 2.11667,-1.05834 3.175,-0.52917 1.05834,0.52917 1.85209,0.79375 2.91042,1.32292 1.05833,0.26458 1.85208,1.32291 1.85208,2.64583 v 32.27917 c 0,0.79375 -0.26458,1.5875 -0.79375,1.85208 -0.52916,0.52917 -1.05833,0.52917 -1.5875,0.52917 z m -22.48958,-13.75834 c 5.82083,4.23334 12.43542,6.87917 19.57917,8.20209 v -27.25209 h -0.26459 z m 66.675,-4.49791 c -0.79375,0 -1.32292,-0.26459 -1.85208,-0.79375 l -22.75417,-22.75417 c -0.79375,-0.79375 -1.05833,-2.11667 -0.52917,-3.175 0.52917,-1.05833 0.79375,-1.85208 1.32292,-2.91042 0.26458,-1.05833 1.32292,-1.85208 2.64583,-1.85208 h 32.27917 c 0.79375,0 1.5875,0.26458 1.85208,0.79375 0.52917,0.52917 0.79375,1.32292 0.79375,2.11667 -1.05833,10.05416 -5.02708,19.84375 -11.37708,27.78125 -0.79375,0.26458 -1.32292,0.79375 -2.38125,0.79375 0.26458,0 0,0 0,0 z m -19.57917,-25.92917 19.31459,19.31458 c 4.23333,-5.82083 6.87916,-12.7 8.20208,-19.57916 h -27.25208 c 0,0 -0.26459,0 -0.26459,0.26458 z m -58.472912,25.92917 c -0.79375,0 -1.5875,-0.52917 -2.116667,-1.05834 -6.35,-7.9375 -10.31875,-17.4625 -11.377083,-27.78125 0,-0.79375 0.264583,-1.5875 0.79375,-2.11666 0.529167,-0.52917 1.322917,-0.79375 1.852083,-0.79375 h 32.279169 c 1.05833,0 2.11666,0.79375 2.64583,1.85208 0.26458,1.05833 0.79375,2.11667 1.32292,2.91042 0.52916,1.05833 0.26458,2.38125 -0.52917,3.175 L 93.803561,151.0537 c -0.529166,0.52916 -1.058333,0.79375 -1.852083,0.79375 z m -7.9375,-26.45834 c 1.058333,7.14375 3.96875,13.75834 8.202083,19.57917 L 111.53064,125.6537 c 0,0 0,-0.26459 -0.26458,-0.26459 z m 97.102082,-10.58333 h -32.27917 c -1.05833,0 -2.11666,-0.79375 -2.64583,-1.85208 -0.26458,-1.05834 -0.79375,-2.11667 -1.32292,-2.91042 -0.52916,-1.05833 -0.26458,-2.38125 0.52917,-3.175 l 22.75417,-22.754167 c 0.52916,-0.529167 1.32291,-0.79375 2.11666,-0.79375 0.79375,0 1.32292,0.264583 1.85209,1.058333 6.35,7.9375 10.31875,17.462504 11.37708,27.781254 0,0.79375 -0.26458,1.5875 -0.79375,2.11666 -0.26458,0.26459 -1.05833,0.52917 -1.5875,0.52917 z m -30.42708,-5.29167 h 27.25208 c -1.05833,-7.14375 -3.96875,-13.758331 -8.20208,-19.579164 l -19.31459,19.314584 c 0,0.26458 0.26459,0.26458 0.26459,0.26458 z m -37.30625,5.29167 H 81.103561 c -0.79375,0 -1.5875,-0.26458 -1.852083,-0.79375 -0.529167,-0.52917 -0.79375,-1.32292 -0.79375,-2.11667 1.058333,-10.05416 5.027083,-19.843747 11.377083,-27.781247 0.529167,-0.529167 1.058334,-1.058334 1.852084,-1.058334 0.79375,0 1.5875,0.264584 2.116666,0.79375 L 116.55773,106.6037 c 0.79375,0.79375 1.05833,2.11666 0.52916,3.175 -0.52916,1.05833 -0.79375,1.85208 -1.32291,2.91041 -0.26459,1.5875 -1.32292,2.11667 -2.38125,2.11667 z m -29.368752,-5.29167 h 27.252082 c 0,0 0,-0.26458 0.26458,-0.26458 L 92.216061,89.934946 c -4.233333,5.820833 -6.879166,12.700004 -8.202083,19.579164 z m 38.100002,-5.55625 c -0.79375,0 -1.32292,-0.26458 -1.85209,-0.79375 L 97.507728,80.409946 c -0.529167,-0.529167 -0.79375,-1.322917 -0.79375,-2.116667 0,-0.79375 0.264583,-1.322916 1.058333,-1.852083 7.937499,-6.35 17.462499,-10.31875 27.781249,-11.377083 0.79375,0 1.5875,0.264583 2.11667,0.79375 0.52916,0.529166 0.79375,1.322916 0.79375,1.852083 v 32.279167 c 0,1.058337 -0.79375,2.116667 -1.85209,2.645837 -1.05833,0.26458 -2.11666,0.79375 -2.91041,1.32291 -0.52917,-0.26458 -1.05834,0 -1.5875,0 z m -18.78542,-25.135414 19.31458,19.314583 c 0,0 0.26459,0 0.26459,-0.264583 V 70.620363 c -6.87917,1.058333 -13.49375,3.96875 -19.57917,8.202083 z m 36.5125,25.135414 c -0.52917,0 -0.79375,0 -1.32292,-0.26458 -0.79375,-0.52917 -1.85208,-0.79375 -2.91041,-1.32292 -1.05834,-0.26458 -1.85209,-1.32291 -1.85209,-2.645831 V 67.709946 c 0,-0.79375 0.26459,-1.5875 0.79375,-1.852083 0.52917,-0.529167 1.32292,-0.79375 2.11667,-0.79375 10.05417,1.058333 19.84375,5.027083 27.78125,11.377083 0.52917,0.529167 1.05833,1.058333 1.05833,1.852083 0,0.79375 -0.26458,1.5875 -0.79375,2.116667 l -22.75416,22.754164 c -0.79375,0.52917 -1.5875,0.79375 -2.11667,0.79375 z m -0.79375,-6.085414 c 0,0 0.26458,0 0.26458,0.264583 l 19.31459,-19.314583 c -5.82084,-4.233333 -12.7,-6.879167 -19.57917,-8.202083 z"
           fill="#231c1c"
           id="path1344"
           style="fill:#000000;fill-opacity:1;stroke-width:0.206706" /></g></g></g></svg>
